<svg viewBox="0 0 32 32" xmlns="http://www.w3.org/2000/svg">
  <path d="M19.4271164 21.4271164C18.0372495 22.4174803 16.3366522 23 14.5 23 9.80557939 23 6 19.1944206 6 14.5 6 9.80557939 9.80557939 6 14.5 6c4.6944206 0 8.5 3.80557939 8.5 8.5 0 1.8366522-.5825197 3.5372495-1.5728836 4.9271164l5.5848012 5.5848012c.550201.550201.5456137 1.4305511-.0001991 1.9763639l-.023437.023437c-.5444167.5444167-1.4306611.5459019-1.9763639.0001991l-5.5848012-5.5848012zM14.5 21c3.5898511 0 6.5-2.9101489 6.5-6.5S18.0898511 8 14.5 8 8 10.9101489 8 14.5s2.9101489 6.5 6.5 6.5z" fill="#170c3a" fill-rule="evenodd"/>
</svg>
